<svg width="24" height="29" viewBox="0 0 24 29" fill="none" xmlns="http://www.w3.org/2000/svg">
<rect width="23.8166" height="25" rx="5" fill="#820505"/>
<path d="M10.134 6.68H12.934V9.26L12.334 16.48H10.734L10.134 9.26V6.68ZM11.534 21.16C11.134 21.16 10.7873 21.0133 10.494 20.72C10.2006 20.4267 10.054 20.08 10.054 19.68C10.054 19.2667 10.2006 18.9133 10.494 18.62C10.7873 18.3267 11.134 18.18 11.534 18.18C11.9473 18.18 12.3006 18.3267 12.594 18.62C12.8873 18.9133 13.034 19.2667 13.034 19.68C13.034 20.08 12.8873 20.4267 12.594 20.72C12.3006 21.0133 11.9473 21.16 11.534 21.16Z" fill="white"/>
</svg>
