<?xml version="1.0" standalone="no"?>
<!DOCTYPE svg PUBLIC "-//W3C//DTD SVG 20010904//EN"
 "http://www.w3.org/TR/2001/REC-SVG-20010904/DTD/svg10.dtd">
<svg version="1.0" xmlns="http://www.w3.org/2000/svg"
 width="700.000000pt" height="700.000000pt" viewBox="0 0 700.000000 700.000000"
 preserveAspectRatio="xMidYMid meet">
<metadata>
Created by potrace 1.14, written by Peter Selinger 2001-2017
</metadata>
<g transform="translate(0.000000,700.000000) scale(0.100000,-0.100000)"
fill="#000000" stroke="none">
<path d="M0 3500 l0 -3500 3500 0 3500 0 0 3363 0 3362 -138 138 -137 137
-3363 0 -3362 0 0 -3500z m5030 2862 c66 -34 870 -624 892 -654 25 -37 36
-122 20 -168 -6 -17 -91 -140 -188 -274 l-178 -243 -269 199 c-278 204 -297
215 -349 187 -11 -6 -26 -26 -34 -44 -26 -64 -16 -75 276 -290 l270 -198 -34
-46 c-18 -25 -60 -83 -93 -128 l-60 -82 -182 135 c-203 149 -221 156 -272 105
-35 -35 -38 -77 -9 -113 11 -14 77 -67 147 -119 71 -51 147 -107 169 -124 l41
-31 -84 -114 c-46 -63 -88 -121 -92 -129 -6 -10 -69 31 -255 168 -296 219
-306 225 -346 216 -57 -13 -90 -92 -57 -137 11 -14 489 -371 529 -394 12 -7
-28 -67 -193 -294 -115 -157 -208 -287 -208 -290 -1 -4 101 -145 327 -454 35
-49 60 -86 54 -82 -16 10 -541 -381 -553 -412 -29 -76 52 -149 124 -111 15 9
453 327 523 380 6 5 35 -26 76 -84 37 -51 81 -111 98 -135 18 -23 28 -41 22
-40 -18 5 -363 -253 -373 -279 -15 -41 -10 -63 20 -94 54 -54 75 -46 278 105
l181 134 55 -77 c102 -141 140 -196 133 -189 -8 7 -497 -349 -533 -389 -52
-56 -13 -143 64 -143 34 0 69 23 303 195 145 107 267 195 270 195 7 -1 371
-503 393 -543 9 -18 17 -53 17 -80 0 -95 -6 -101 -460 -430 -228 -166 -435
-312 -459 -324 -25 -13 -58 -23 -75 -23 -42 1 -105 31 -137 66 -14 16 -371
504 -793 1084 -422 580 -816 1123 -877 1205 -61 83 -128 186 -149 230 -90 185
-91 398 -4 584 19 40 97 159 174 265 77 105 190 261 253 346 62 85 404 556
760 1047 576 793 652 894 690 912 51 26 111 27 157 3z"/>
<path d="M3536 3705 c-80 -28 -136 -110 -136 -200 0 -120 95 -215 215 -215
191 0 287 229 152 364 -63 62 -147 81 -231 51z"/>
</g>
</svg>
