<svg width="54" height="54" viewBox="0 0 54 54" fill="none" xmlns="http://www.w3.org/2000/svg">
<rect width="54" height="54" fill="url(#paint0_linear_555_281)"/>
<path d="M10.9409 48.6902C10.0982 48.6902 9.4133 48.427 8.88641 47.9004C8.4123 47.3739 8.14903 46.7421 8.09625 46.0051C8.09625 45.2681 8.38605 44.5573 8.96542 43.8727L22.6184 26.816L23.5048 25.7087L24.3239 26.7938L26.9026 30.2102L13.0744 47.7425C12.6003 48.3743 11.8891 48.6902 10.9409 48.6902Z" fill="#C94242"/>
<path d="M9.67661 10.3876L22.6184 26.816L23.5048 25.7087L24.3239 26.7938L27.2187 23.4184L13.9436 6.4389C13.3115 5.80711 12.5478 5.49121 11.6521 5.49121C10.7566 5.49121 10.0717 5.78079 9.5976 6.35993C9.12348 6.88644 8.86018 7.51831 8.8074 8.25531C8.8074 8.99231 9.09723 9.70308 9.67661 10.3876Z" fill="#C94242"/>
<path d="M24.8166 22.742C22.4565 24.4557 21.9332 27.7574 23.6479 30.1162L37.089 48.605C37.5462 49.2334 38.4266 49.3727 39.0531 48.9161L45.3238 44.3635C45.9532 43.9068 46.0914 43.0271 45.6343 42.3987L32.1955 23.91C30.4802 21.5512 27.1767 21.0282 24.8166 22.742Z" fill="#FFCB39"/>
<path d="M41.3136 37.6866L41.8809 37.2686L42.7162 38.4041L42.149 38.8221L41.3136 37.6866ZM38.7399 41.3309C38.4266 41.5619 37.9864 41.4948 37.755 41.1815C37.5236 40.8678 37.5913 40.4264 37.9045 40.1954L38.7399 41.3309ZM42.149 38.8221L38.7399 41.3309L37.9045 40.1954L41.3136 37.6866L42.149 38.8221Z" fill="#820505"/>
<path d="M39.0559 34.584L39.6231 34.166L40.4585 35.3016L39.8913 35.7196L39.0559 34.584ZM37.8452 37.2249C37.532 37.4559 37.0917 37.3887 36.8603 37.0754C36.6289 36.7617 36.6966 36.3203 37.0099 36.0893L37.8452 37.2249ZM39.8913 35.7196L37.8452 37.2249L37.0099 36.0893L39.0559 34.584L39.8913 35.7196Z" fill="#820505"/>
<path d="M36.7982 31.4815L37.3655 31.0635L38.2008 32.199L37.6336 32.617L36.7982 31.4815ZM34.2245 35.1259C33.9112 35.3569 33.471 35.2897 33.2396 34.9764C33.0082 34.6627 33.0759 34.2213 33.3892 33.9903L34.2245 35.1259ZM37.6336 32.617L34.2245 35.1259L33.3892 33.9903L36.7982 31.4815L37.6336 32.617Z" fill="#820505"/>
<path d="M24.8166 31.259C22.4565 29.545 21.9332 26.2435 23.6479 23.8848L37.089 5.39539C37.5462 4.76687 38.4266 4.62754 39.056 5.08418L45.3238 9.63666C45.9532 10.0933 46.0914 10.973 45.6343 11.6017L32.1955 30.091C30.4802 32.4498 27.1767 32.9727 24.8166 31.259Z" fill="#FFDF41"/>
<path d="M41.5958 15.9464L42.1631 16.3646L42.9984 15.2291L42.4312 14.8108L41.5958 15.9464ZM39.0221 12.302C38.7088 12.071 38.2686 12.1381 38.0372 12.4515C37.8058 12.7651 37.8735 13.2065 38.1868 13.4375L39.0221 12.302ZM42.4312 14.8108L39.0221 12.302L38.1868 13.4375L41.5958 15.9464L42.4312 14.8108Z" fill="#820505"/>
<path d="M39.3381 19.0488L39.9054 19.4671L40.7407 18.3315L40.1735 17.9132L39.3381 19.0488ZM38.1275 16.4079C37.8142 16.1769 37.374 16.2441 37.1425 16.5574C36.9111 16.8711 36.9789 17.3125 37.2921 17.5435L38.1275 16.4079ZM40.1735 17.9132L38.1275 16.4079L37.2921 17.5435L39.3381 19.0488L40.1735 17.9132Z" fill="#820505"/>
<path d="M37.0805 22.1514L37.6477 22.5697L38.483 21.4342L37.9158 21.0159L37.0805 22.1514ZM34.5067 18.5071C34.1935 18.2761 33.7532 18.3432 33.5218 18.6565C33.2904 18.9702 33.3581 19.4116 33.6714 19.6426L34.5067 18.5071ZM37.9158 21.0159L34.5067 18.5071L33.6714 19.6426L37.0805 22.1514L37.9158 21.0159Z" fill="#820505"/>
<path opacity="0.8" d="M27.8805 28.6644C28.8157 28.6644 29.5738 27.9067 29.5738 26.9721C29.5738 26.0375 28.8157 25.2798 27.8805 25.2798C26.9454 25.2798 26.1873 26.0375 26.1873 26.9721C26.1873 27.9067 26.9454 28.6644 27.8805 28.6644Z" fill="#820505"/>
<defs>
<linearGradient id="paint0_linear_555_281" x1="0" y1="54" x2="54" y2="0" gradientUnits="userSpaceOnUse">
<stop/>
<stop offset="0.0001" stop-color="#1E1E1E" stop-opacity="0.989583"/>
<stop offset="1" stop-color="#6A6A6A"/>
</linearGradient>
</defs>
</svg>
