<svg width="322" height="88" viewBox="0 0 322 88" fill="none" xmlns="http://www.w3.org/2000/svg">
<path d="M25.602 69.6668C24.7591 69.6668 24.0216 69.3771 23.3895 68.798C22.81 68.1663 22.5203 67.4293 22.5203 66.5868V46.8432L1.02725 12.8052C0.500455 12.0155 0.289741 11.2521 0.395098 10.515C0.553135 9.77789 0.895547 9.17241 1.42234 8.69856C1.94913 8.22472 2.60761 7.98779 3.3978 7.98779C4.02995 7.98779 4.53039 8.11943 4.89915 8.38266C5.32057 8.6459 5.68933 9.01446 6.00541 9.48831L27.3404 43.8422H24.0216L45.2776 9.64625C45.6464 9.06712 46.0415 8.6459 46.4628 8.38266C46.9369 8.11943 47.4901 7.98779 48.1222 7.98779C48.8596 7.98779 49.4655 8.25103 49.9396 8.77754C50.4665 9.25138 50.7561 9.85686 50.8088 10.5939C50.9141 11.331 50.7298 12.0681 50.2557 12.8052L28.6837 46.8432V66.5868C28.6837 67.4293 28.3676 68.1663 27.7355 68.798C27.156 69.3771 26.4448 69.6668 25.602 69.6668ZM65.5717 70.0616C61.5156 70.0616 57.8807 69.1139 54.6672 67.2186C51.4537 65.2704 48.8989 62.638 47.0024 59.3211C45.1587 56.0042 44.2368 52.2662 44.2368 48.1068C44.2368 43.8949 45.185 40.1304 47.0814 36.8134C49.0306 33.4965 51.6645 30.8904 54.9833 28.995C58.302 27.0469 62.0422 26.0729 66.2039 26.0729C70.3656 26.0729 74.0795 27.0469 77.3455 28.995C80.6642 30.8904 83.2719 33.4965 85.1683 36.8134C87.1175 40.1304 88.1182 43.8949 88.171 48.1068L85.7214 50.0021C85.7214 53.7929 84.826 57.215 83.0348 60.2688C81.2964 63.2698 78.8996 65.6653 75.8441 67.4555C72.8414 69.1929 69.4174 70.0616 65.5717 70.0616ZM66.2039 64.5334C69.2594 64.5334 71.9722 63.8227 74.3428 62.4011C76.7661 60.9796 78.6626 59.0315 80.0321 56.557C81.4544 54.0298 82.1656 51.213 82.1656 48.1068C82.1656 44.9478 81.4544 42.1309 80.0321 39.6565C78.6626 37.1821 76.7661 35.2339 74.3428 33.8124C71.9722 32.3381 69.2594 31.6011 66.2039 31.6011C63.2012 31.6011 60.4883 32.3381 58.065 33.8124C55.6417 35.2339 53.719 37.1821 52.2966 39.6565C50.8743 42.1309 50.1631 44.9478 50.1631 48.1068C50.1631 51.213 50.8743 54.0298 52.2966 56.557C53.719 59.0315 55.6417 60.9796 58.065 62.4011C60.4883 63.8227 63.2012 64.5334 66.2039 64.5334ZM85.0893 69.6668C84.1938 69.6668 83.4561 69.4036 82.8768 68.877C82.2974 68.298 82.0076 67.5607 82.0076 66.6657V53.1611L83.5089 46.9222L88.171 48.1068V66.6657C88.171 67.5607 87.8812 68.298 87.3018 68.877C86.7224 69.4036 85.9847 69.6668 85.0893 69.6668ZM98.5822 43.0524C98.7403 39.7882 99.5832 36.8662 101.111 34.2863C102.691 31.7063 104.719 29.6795 107.195 28.2052C109.724 26.731 112.516 25.9939 115.571 25.9939C117.995 25.9939 119.864 26.3362 121.182 27.0206C122.499 27.7051 122.999 28.7053 122.683 30.0216C122.472 30.8114 122.103 31.338 121.577 31.6011C121.102 31.8643 120.497 31.9698 119.759 31.917C119.074 31.8643 118.284 31.8118 117.389 31.7591C114.439 31.4959 111.805 31.8118 109.487 32.7068C107.221 33.5493 105.404 34.8653 104.035 36.6555C102.717 38.4457 102.059 40.578 102.059 43.0524H98.5822ZM99.0564 69.6668C98.1081 69.6668 97.3707 69.4036 96.8438 68.877C96.3169 68.3504 96.0537 67.6134 96.0537 66.6657V29.4688C96.0537 28.5211 96.3169 27.784 96.8438 27.2575C97.3707 26.731 98.1081 26.4678 99.0564 26.4678C100.005 26.4678 100.742 26.731 101.269 27.2575C101.796 27.784 102.059 28.5211 102.059 29.4688V66.6657C102.059 67.6134 101.796 68.3504 101.269 68.877C100.742 69.4036 100.005 69.6668 99.0564 69.6668ZM144.805 70.0616C140.644 70.0616 136.904 69.1139 133.585 67.2186C130.266 65.2704 127.632 62.638 125.683 59.3211C123.787 56.0042 122.838 52.2397 122.838 48.0278C122.838 43.8684 123.76 40.1304 125.604 36.8134C127.5 33.4965 130.056 30.8904 133.269 28.995C136.482 27.0469 140.117 26.0729 144.173 26.0729C147.703 26.0729 150.89 26.8363 153.735 28.3632C156.579 29.8375 158.871 31.8118 160.609 34.2863V11.0678C160.609 10.1201 160.899 9.38302 161.478 8.85651C162.058 8.27738 162.795 7.98779 163.691 7.98779C164.587 7.98779 165.324 8.27738 165.903 8.85651C166.483 9.38302 166.773 10.1201 166.773 11.0678V48.3437C166.667 52.4504 165.64 56.1621 163.691 59.4791C161.794 62.7433 159.187 65.3232 155.868 67.2186C152.602 69.1139 148.914 70.0616 144.805 70.0616ZM144.805 64.5334C147.861 64.5334 150.574 63.8227 152.944 62.4011C155.368 60.9268 157.264 58.9525 158.634 56.4781C160.056 54.0036 160.767 51.1868 160.767 48.0278C160.767 44.9216 160.056 42.1309 158.634 39.6565C157.264 37.1293 155.368 35.155 152.944 33.7334C150.574 32.3119 147.861 31.6011 144.805 31.6011C141.803 31.6011 139.09 32.3119 136.667 33.7334C134.244 35.155 132.321 37.1293 130.898 39.6565C129.476 42.1309 128.765 44.9216 128.765 48.0278C128.765 51.1868 129.476 54.0036 130.898 56.4781C132.321 58.9525 134.244 60.9268 136.667 62.4011C139.09 63.8227 141.803 64.5334 144.805 64.5334ZM192.14 70.0616C189.032 70.0616 185.95 69.535 182.895 68.4822C179.839 67.4293 177.364 65.8498 175.467 63.7437C174.888 63.1119 174.651 62.4011 174.756 61.6114C174.861 60.8216 175.256 60.1371 175.941 59.558C176.679 59.0315 177.443 58.821 178.233 58.9263C179.023 59.0315 179.681 59.3739 180.208 59.9529C181.473 61.4272 183.132 62.5591 185.186 63.3488C187.294 64.1386 189.611 64.5334 192.14 64.5334C196.038 64.5334 198.857 63.8754 200.595 62.5591C202.333 61.1903 203.229 59.558 203.282 57.6627C203.282 55.7673 202.386 54.214 200.595 53.0032C198.804 51.7396 195.854 50.7657 191.745 50.0811C186.424 49.2386 182.526 47.7646 180.05 45.6586C177.574 43.5525 176.336 41.0518 176.336 38.156C176.336 35.4709 177.048 33.2334 178.47 31.4432C179.892 29.653 181.789 28.3104 184.159 27.4155C186.53 26.5205 189.137 26.0729 191.982 26.0729C195.512 26.0729 198.541 26.6784 201.069 27.8893C203.65 29.1002 205.731 30.7324 207.312 32.7857C207.838 33.4703 208.049 34.181 207.944 34.918C207.838 35.655 207.417 36.2606 206.679 36.7345C206.047 37.1031 205.31 37.2345 204.467 37.1293C203.677 36.9714 202.992 36.5765 202.412 35.9447C201.095 34.418 199.568 33.3123 197.829 32.6278C196.091 31.8908 194.089 31.5222 191.824 31.5222C188.927 31.5222 186.609 32.1277 184.87 33.3386C183.132 34.4969 182.263 35.9709 182.263 37.7611C182.263 38.972 182.579 40.0252 183.211 40.9201C183.896 41.815 185.028 42.6048 186.609 43.2893C188.242 43.9739 190.507 44.5529 193.404 45.0268C197.355 45.6586 200.463 46.6063 202.729 47.8698C205.046 49.0807 206.679 50.5287 207.628 52.2134C208.629 53.8457 209.129 55.6356 209.129 57.5837C209.129 60.0581 208.392 62.2432 206.916 64.1386C205.494 65.9812 203.492 67.4293 200.911 68.4822C198.382 69.535 195.459 70.0616 192.14 70.0616ZM232.603 69.6668C229.81 69.6668 227.308 69.0087 225.096 67.6924C222.936 66.3761 221.224 64.5862 219.96 62.3222C218.695 60.0057 218.063 57.373 218.063 54.4247V15.8063C218.063 14.9112 218.326 14.1741 218.853 13.595C219.433 13.0158 220.17 12.7263 221.066 12.7263C221.961 12.7263 222.699 13.0158 223.278 13.595C223.858 14.1741 224.148 14.9112 224.148 15.8063V54.4247C224.148 57.1098 224.938 59.3211 226.518 61.0586C228.098 62.7433 230.126 63.5857 232.603 63.5857H234.736C235.579 63.5857 236.264 63.8754 236.791 64.4545C237.317 65.0335 237.581 65.7708 237.581 66.6657C237.581 67.5607 237.265 68.298 236.632 68.877C236 69.4036 235.21 69.6668 234.262 69.6668H232.603ZM212.927 33.3386C212.137 33.3386 211.478 33.1016 210.952 32.6278C210.425 32.1012 210.161 31.4694 210.161 30.7324C210.161 29.9427 210.425 29.3109 210.952 28.837C211.478 28.3104 212.137 28.0473 212.927 28.0473H233.077C233.867 28.0473 234.525 28.3104 235.052 28.837C235.579 29.3109 235.842 29.9427 235.842 30.7324C235.842 31.4694 235.579 32.1012 235.052 32.6278C234.525 33.1016 233.867 33.3386 233.077 33.3386H212.927ZM247.88 69.6668C246.932 69.6668 246.168 69.4036 245.589 68.877C245.062 68.298 244.798 67.5345 244.798 66.5868V29.5478C244.798 28.6001 245.062 27.863 245.589 27.3365C246.168 26.7574 246.932 26.4678 247.88 26.4678C248.776 26.4678 249.487 26.7574 250.014 27.3365C250.593 27.863 250.883 28.6001 250.883 29.5478V66.5868C250.883 67.5345 250.593 68.298 250.014 68.877C249.487 69.4036 248.776 69.6668 247.88 69.6668ZM247.801 18.2545C246.642 18.2545 245.641 17.8333 244.798 16.9909C243.956 16.1485 243.534 15.1218 243.534 13.9109C243.534 12.5946 243.956 11.568 244.798 10.8309C245.694 10.0411 246.721 9.64625 247.88 9.64625C248.986 9.64625 249.961 10.0411 250.804 10.8309C251.699 11.568 252.147 12.5946 252.147 13.9109C252.147 15.1218 251.726 16.1485 250.883 16.9909C250.04 17.8333 249.013 18.2545 247.801 18.2545ZM292.611 69.6668C291.979 69.6668 291.451 69.5616 291.03 69.3509C290.661 69.1402 290.266 68.7718 289.845 68.2452L276.174 50.8709L273.803 48.8175L260.054 31.3642C259.474 30.6797 259.185 29.9689 259.185 29.2319C259.237 28.4949 259.501 27.863 259.975 27.3365C260.449 26.7574 261.134 26.4678 262.029 26.4678C262.925 26.4678 263.689 26.7837 264.321 27.4155L277.596 44.395L279.729 46.1324L294.428 64.9283C295.111 65.7708 295.402 66.5605 295.297 67.2975C295.19 68.0345 294.849 68.6139 294.27 69.035C293.742 69.4561 293.189 69.6668 292.611 69.6668ZM261.318 69.6668C260.475 69.6668 259.791 69.4036 259.264 68.877C258.79 68.3504 258.526 67.7186 258.473 66.9816C258.473 66.2446 258.763 65.5339 259.343 64.8493L273.882 46.6852L277.28 51.1868L263.452 68.7191C262.977 69.3509 262.266 69.6668 261.318 69.6668ZM279.808 49.1334L275.937 45.1847L289.608 27.8893C289.975 27.3628 290.37 26.9943 290.793 26.7837C291.268 26.5731 291.742 26.4678 292.216 26.4678C293.11 26.4678 293.796 26.7574 294.27 27.3365C294.744 27.863 294.953 28.5211 294.902 29.3109C294.902 30.0479 294.637 30.7586 294.112 31.4432L279.808 49.1334Z" fill="#820505"/>
<path d="M299.706 26.5127H276.564V71.923H299.706V26.5127Z" fill="white"/>
<path d="M275.194 43.7186C272.834 45.4323 272.31 48.734 274.025 51.0928L287.466 69.5815C287.923 70.2099 288.804 70.3493 289.43 69.8926L295.701 65.34C296.33 64.8834 296.469 64.0037 296.011 63.3753L282.573 44.8865C280.857 42.5277 277.554 42.0048 275.194 43.7186Z" fill="#FFCB39"/>
<path d="M291.691 58.6631L292.258 58.2451L293.093 59.3807L292.526 59.7987L291.691 58.6631ZM289.117 62.3075C288.804 62.5385 288.364 62.4714 288.132 62.158C287.901 61.8444 287.968 61.403 288.282 61.172L289.117 62.3075ZM292.526 59.7987L289.117 62.3075L288.282 61.172L291.691 58.6631L292.526 59.7987Z" fill="#820505"/>
<path d="M289.433 55.5606L290 55.1426L290.836 56.2781L290.268 56.6961L289.433 55.5606ZM288.222 58.2014C287.909 58.4324 287.469 58.3653 287.238 58.0519C287.006 57.7383 287.074 57.2969 287.387 57.0659L288.222 58.2014ZM290.268 56.6961L288.222 58.2014L287.387 57.0659L289.433 55.5606L290.268 56.6961Z" fill="#820505"/>
<path d="M287.175 52.458L287.743 52.04L288.578 53.1756L288.011 53.5936L287.175 52.458ZM284.602 56.1024C284.288 56.3334 283.848 56.2663 283.617 55.9529C283.385 55.6393 283.453 55.1979 283.766 54.9669L284.602 56.1024ZM288.011 53.5936L284.602 56.1024L283.766 54.9669L287.175 52.458L288.011 53.5936Z" fill="#820505"/>
<path d="M275.194 52.2355C272.834 50.5215 272.31 47.2201 274.025 44.8613L287.466 26.372C287.923 25.7434 288.804 25.6041 289.433 26.0607L295.701 30.6132C296.33 31.0699 296.469 31.9496 296.011 32.5783L282.573 51.0676C280.857 53.4264 277.554 53.9493 275.194 52.2355Z" fill="#FFDF41"/>
<path d="M291.973 36.9229L292.54 37.3412L293.376 36.2057L292.808 35.7874L291.973 36.9229ZM289.399 33.2785C289.086 33.0475 288.646 33.1147 288.414 33.428C288.183 33.7417 288.251 34.1831 288.564 34.4141L289.399 33.2785ZM292.808 35.7874L289.399 33.2785L288.564 34.4141L291.973 36.9229L292.808 35.7874Z" fill="#820505"/>
<path d="M289.715 40.0253L290.283 40.4436L291.118 39.3081L290.551 38.8898L289.715 40.0253ZM288.505 37.3845C288.191 37.1535 287.751 37.2206 287.52 37.534C287.288 37.8476 287.356 38.289 287.669 38.52L288.505 37.3845ZM290.551 38.8898L288.505 37.3845L287.669 38.52L289.715 40.0253L290.551 38.8898Z" fill="#820505"/>
<path d="M287.458 43.128L288.025 43.5463L288.86 42.4107L288.293 41.9925L287.458 43.128ZM284.884 39.4836C284.571 39.2526 284.13 39.3197 283.899 39.6331C283.668 39.9467 283.735 40.3882 284.049 40.6192L284.884 39.4836ZM288.293 41.9925L284.884 39.4836L284.049 40.6192L287.458 43.128L288.293 41.9925Z" fill="#820505"/>
<path opacity="0.8" d="M278.258 49.641C279.193 49.641 279.951 48.8833 279.951 47.9487C279.951 47.014 279.193 46.2563 278.258 46.2563C277.323 46.2563 276.564 47.014 276.564 47.9487C276.564 48.8833 277.323 49.641 278.258 49.641Z" fill="#820505"/>
<path d="M300.682 26.5126V14.7342H303.34V26.5126H300.682ZM296.94 16.8834V14.5649H307.082V16.8834H296.94ZM308.567 26.5126V14.5649H310.463L315.171 21.8926H314.205L318.896 14.5649H320.809V26.5126H318.151V19.0496L318.625 19.168L315.56 23.9403H313.799L310.751 19.168L311.208 19.0496V26.5126H308.567Z" fill="#820505"/>
</svg>
