<svg width="321" height="64" viewBox="0 0 321 64" fill="none" xmlns="http://www.w3.org/2000/svg">
<path d="M25.602 62.6668C24.7591 62.6668 24.0216 62.3771 23.3895 61.798C22.81 61.1663 22.5203 60.4293 22.5203 59.5868V39.8432L1.02726 5.80523C0.500471 5.01549 0.289757 4.25206 0.395114 3.51497C0.55315 2.77789 0.895563 2.17241 1.42235 1.69856C1.94914 1.22472 2.60763 0.987793 3.39781 0.987793C4.02996 0.987793 4.5304 1.11943 4.89916 1.38266C5.32058 1.6459 5.68935 2.01446 6.00542 2.48831L27.3404 36.8422H24.0216L45.2776 2.64625C45.6464 2.06712 46.0415 1.6459 46.4628 1.38266C46.937 1.11943 47.4901 0.987793 48.1222 0.987793C48.8596 0.987793 49.4655 1.25103 49.9397 1.77754C50.4665 2.25138 50.7561 2.85686 50.8089 3.59395C50.9141 4.33103 50.7298 5.06814 50.2557 5.80523L28.6837 39.8432V59.5868C28.6837 60.4293 28.3676 61.1663 27.7355 61.798C27.156 62.3771 26.4449 62.6668 25.602 62.6668ZM65.5718 63.0616C61.5156 63.0616 57.8807 62.1139 54.6672 60.2186C51.4537 58.2704 48.8989 55.638 47.0024 52.3211C45.1588 49.0042 44.2368 45.2662 44.2368 41.1068C44.2368 36.8949 45.185 33.1304 47.0814 29.8134C49.0307 26.4965 51.6645 23.8904 54.9833 21.995C58.3021 20.0469 62.0422 19.0729 66.2039 19.0729C70.3656 19.0729 74.0795 20.0469 77.3455 21.995C80.6643 23.8904 83.2719 26.4965 85.1683 29.8134C87.1175 33.1304 88.1182 36.8949 88.171 41.1068L85.7215 43.0021C85.7215 46.7929 84.826 50.215 83.0348 53.2688C81.2964 56.2698 78.8996 58.6653 75.8441 60.4555C72.8414 62.1929 69.4174 63.0616 65.5718 63.0616ZM66.2039 57.5334C69.2594 57.5334 71.9722 56.8227 74.3428 55.4011C76.7661 53.9796 78.6626 52.0315 80.0321 49.557C81.4545 47.0298 82.1656 44.213 82.1656 41.1068C82.1656 37.9478 81.4545 35.1309 80.0321 32.6565C78.6626 30.1821 76.7661 28.2339 74.3428 26.8124C71.9722 25.3381 69.2594 24.6011 66.2039 24.6011C63.2012 24.6011 60.4883 25.3381 58.065 26.8124C55.6417 28.2339 53.719 30.1821 52.2967 32.6565C50.8743 35.1309 50.1632 37.9478 50.1632 41.1068C50.1632 44.213 50.8743 47.0298 52.2967 49.557C53.719 52.0315 55.6417 53.9796 58.065 55.4011C60.4883 56.8227 63.2012 57.5334 66.2039 57.5334ZM85.0893 62.6668C84.1938 62.6668 83.4562 62.4036 82.8768 61.877C82.2974 61.298 82.0076 60.5607 82.0076 59.6657V46.1611L83.5089 39.9222L88.171 41.1068V59.6657C88.171 60.5607 87.8812 61.298 87.3018 61.877C86.7224 62.4036 85.9847 62.6668 85.0893 62.6668ZM98.5823 36.0524C98.7403 32.7882 99.5832 29.8662 101.111 27.2863C102.691 24.7063 104.719 22.6795 107.195 21.2052C109.724 19.731 112.516 18.9939 115.571 18.9939C117.995 18.9939 119.864 19.3362 121.182 20.0206C122.499 20.7051 122.999 21.7053 122.683 23.0216C122.472 23.8114 122.103 24.338 121.577 24.6011C121.102 24.8643 120.497 24.9698 119.759 24.917C119.074 24.8643 118.284 24.8118 117.389 24.7591C114.439 24.4959 111.805 24.8118 109.487 25.7068C107.222 26.5493 105.404 27.8653 104.035 29.6555C102.717 31.4457 102.059 33.578 102.059 36.0524H98.5823ZM99.0564 62.6668C98.1081 62.6668 97.3707 62.4036 96.8438 61.877C96.317 61.3504 96.0537 60.6134 96.0537 59.6657V22.4688C96.0537 21.5211 96.317 20.784 96.8438 20.2575C97.3707 19.731 98.1081 19.4678 99.0564 19.4678C100.005 19.4678 100.742 19.731 101.269 20.2575C101.796 20.784 102.059 21.5211 102.059 22.4688V59.6657C102.059 60.6134 101.796 61.3504 101.269 61.877C100.742 62.4036 100.005 62.6668 99.0564 62.6668ZM144.805 63.0616C140.644 63.0616 136.904 62.1139 133.585 60.2186C130.266 58.2704 127.632 55.638 125.683 52.3211C123.787 49.0042 122.838 45.2397 122.838 41.0278C122.838 36.8684 123.76 33.1304 125.604 29.8134C127.5 26.4965 130.056 23.8904 133.269 21.995C136.482 20.0469 140.117 19.0729 144.173 19.0729C147.703 19.0729 150.89 19.8363 153.735 21.3632C156.579 22.8375 158.871 24.8118 160.609 27.2863V4.06779C160.609 3.1201 160.899 2.38302 161.478 1.85651C162.058 1.27737 162.795 0.987793 163.691 0.987793C164.587 0.987793 165.324 1.27737 165.903 1.85651C166.483 2.38302 166.773 3.1201 166.773 4.06779V41.3437C166.667 45.4504 165.64 49.1621 163.691 52.4791C161.794 55.7433 159.187 58.3232 155.868 60.2186C152.602 62.1139 148.914 63.0616 144.805 63.0616ZM144.805 57.5334C147.861 57.5334 150.574 56.8227 152.944 55.4011C155.368 53.9268 157.264 51.9525 158.634 49.4781C160.056 47.0036 160.767 44.1868 160.767 41.0278C160.767 37.9216 160.056 35.1309 158.634 32.6565C157.264 30.1293 155.368 28.155 152.944 26.7334C150.574 25.3119 147.861 24.6011 144.805 24.6011C141.803 24.6011 139.09 25.3119 136.667 26.7334C134.244 28.155 132.321 30.1293 130.898 32.6565C129.476 35.1309 128.765 37.9216 128.765 41.0278C128.765 44.1868 129.476 47.0036 130.898 49.4781C132.321 51.9525 134.244 53.9268 136.667 55.4011C139.09 56.8227 141.803 57.5334 144.805 57.5334ZM192.14 63.0616C189.032 63.0616 185.95 62.535 182.895 61.4822C179.839 60.4293 177.364 58.8498 175.467 56.7437C174.888 56.1119 174.651 55.4011 174.756 54.6114C174.861 53.8216 175.256 53.1371 175.941 52.558C176.679 52.0315 177.443 51.821 178.233 51.9263C179.023 52.0315 179.681 52.3739 180.208 52.9529C181.473 54.4272 183.132 55.5591 185.186 56.3488C187.294 57.1386 189.611 57.5334 192.14 57.5334C196.038 57.5334 198.857 56.8754 200.595 55.5591C202.333 54.1903 203.229 52.558 203.282 50.6627C203.282 48.7673 202.386 47.214 200.595 46.0032C198.804 44.7396 195.854 43.7657 191.745 43.0811C186.424 42.2386 182.526 40.7646 180.05 38.6586C177.574 36.5525 176.336 34.0518 176.336 31.156C176.336 28.4709 177.048 26.2334 178.47 24.4432C179.892 22.653 181.789 21.3104 184.159 20.4155C186.53 19.5205 189.137 19.0729 191.982 19.0729C195.512 19.0729 198.541 19.6784 201.069 20.8893C203.65 22.1002 205.731 23.7324 207.312 25.7857C207.838 26.4703 208.049 27.181 207.944 27.918C207.838 28.655 207.417 29.2606 206.679 29.7345C206.047 30.1031 205.31 30.2345 204.467 30.1293C203.677 29.9714 202.992 29.5765 202.412 28.9447C201.095 27.418 199.568 26.3123 197.829 25.6278C196.091 24.8908 194.089 24.5222 191.824 24.5222C188.927 24.5222 186.609 25.1277 184.87 26.3386C183.132 27.4969 182.263 28.9709 182.263 30.7611C182.263 31.972 182.579 33.0252 183.211 33.9201C183.896 34.815 185.028 35.6048 186.609 36.2893C188.242 36.9739 190.507 37.5529 193.404 38.0268C197.355 38.6586 200.463 39.6062 202.729 40.8698C205.046 42.0807 206.679 43.5287 207.628 45.2134C208.629 46.8457 209.129 48.6356 209.129 50.5837C209.129 53.0581 208.392 55.2432 206.916 57.1386C205.494 58.9812 203.492 60.4293 200.911 61.4822C198.383 62.535 195.459 63.0616 192.14 63.0616ZM232.603 62.6668C229.81 62.6668 227.308 62.0087 225.096 60.6924C222.936 59.3761 221.224 57.5862 219.96 55.3222C218.695 53.0057 218.063 50.373 218.063 47.4247V8.80625C218.063 7.91122 218.326 7.17411 218.853 6.59497C219.433 6.01584 220.17 5.72625 221.066 5.72625C221.961 5.72625 222.699 6.01584 223.278 6.59497C223.858 7.17411 224.148 7.91122 224.148 8.80625V47.4247C224.148 50.1098 224.938 52.3211 226.518 54.0586C228.099 55.7433 230.126 56.5857 232.603 56.5857H234.736C235.579 56.5857 236.264 56.8754 236.791 57.4545C237.317 58.0335 237.581 58.7708 237.581 59.6657C237.581 60.5607 237.265 61.298 236.633 61.877C236 62.4036 235.21 62.6668 234.262 62.6668H232.603ZM212.927 26.3386C212.137 26.3386 211.478 26.1016 210.952 25.6278C210.425 25.1012 210.161 24.4694 210.161 23.7324C210.161 22.9427 210.425 22.3109 210.952 21.837C211.478 21.3104 212.137 21.0473 212.927 21.0473H233.077C233.867 21.0473 234.525 21.3104 235.052 21.837C235.579 22.3109 235.842 22.9427 235.842 23.7324C235.842 24.4694 235.579 25.1012 235.052 25.6278C234.525 26.1016 233.867 26.3386 233.077 26.3386H212.927ZM247.88 62.6668C246.932 62.6668 246.168 62.4036 245.589 61.877C245.062 61.298 244.798 60.5345 244.798 59.5868V22.5478C244.798 21.6001 245.062 20.863 245.589 20.3365C246.168 19.7574 246.932 19.4678 247.88 19.4678C248.776 19.4678 249.487 19.7574 250.014 20.3365C250.593 20.863 250.883 21.6001 250.883 22.5478V59.5868C250.883 60.5345 250.593 61.298 250.014 61.877C249.487 62.4036 248.776 62.6668 247.88 62.6668ZM247.801 11.2545C246.642 11.2545 245.641 10.8333 244.798 9.99087C243.956 9.14847 243.534 8.1218 243.534 6.91087C243.534 5.59462 243.956 4.56795 244.798 3.83087C245.694 3.04113 246.721 2.64625 247.88 2.64625C248.986 2.64625 249.961 3.04113 250.804 3.83087C251.699 4.56795 252.147 5.59462 252.147 6.91087C252.147 8.1218 251.726 9.14847 250.883 9.99087C250.04 10.8333 249.013 11.2545 247.801 11.2545ZM261.318 62.6668C260.475 62.6668 259.791 62.4036 259.264 61.877C258.79 61.3504 258.526 60.7186 258.473 59.9816C258.473 59.2446 258.763 58.5339 259.343 57.8493L272.996 40.7926L273.882 39.6852L274.701 40.7704L277.28 44.1868L263.452 61.7191C262.978 62.3509 262.266 62.6668 261.318 62.6668Z" fill="#820505"/>
<path d="M260.054 24.3642L272.996 40.7926L273.882 39.6852L274.701 40.7704L277.596 37.395L264.321 20.4155C263.689 19.7837 262.925 19.4678 262.029 19.4678C261.134 19.4678 260.449 19.7574 259.975 20.3365C259.501 20.863 259.237 21.4949 259.185 22.2319C259.185 22.9689 259.474 23.6797 260.054 24.3642Z" fill="#820505"/>
<path d="M275.194 36.7186C272.834 38.4323 272.31 41.734 274.025 44.0928L287.466 62.5815C287.923 63.2099 288.804 63.3493 289.43 62.8926L295.701 58.34C296.33 57.8834 296.469 57.0037 296.011 56.3753L282.573 37.8865C280.857 35.5277 277.554 35.0048 275.194 36.7186Z" fill="#FFCB39"/>
<path d="M291.691 51.6631L292.258 51.2451L293.093 52.3807L292.526 52.7987L291.691 51.6631ZM289.117 55.3075C288.804 55.5385 288.364 55.4714 288.132 55.158C287.901 54.8444 287.968 54.403 288.282 54.172L289.117 55.3075ZM292.526 52.7987L289.117 55.3075L288.282 54.172L291.691 51.6631L292.526 52.7987Z" fill="#820505"/>
<path d="M289.433 48.5606L290 48.1426L290.836 49.2781L290.268 49.6961L289.433 48.5606ZM288.222 51.2014C287.909 51.4324 287.469 51.3653 287.238 51.0519C287.006 50.7383 287.074 50.2969 287.387 50.0659L288.222 51.2014ZM290.268 49.6961L288.222 51.2014L287.387 50.0659L289.433 48.5606L290.268 49.6961Z" fill="#820505"/>
<path d="M287.175 45.458L287.743 45.04L288.578 46.1756L288.011 46.5936L287.175 45.458ZM284.602 49.1024C284.288 49.3334 283.848 49.2663 283.617 48.9529C283.385 48.6393 283.453 48.1979 283.766 47.9669L284.602 49.1024ZM288.011 46.5936L284.602 49.1024L283.766 47.9669L287.175 45.458L288.011 46.5936Z" fill="#820505"/>
<path d="M275.194 45.2355C272.834 43.5215 272.31 40.2201 274.025 37.8613L287.466 19.372C287.923 18.7434 288.804 18.6041 289.433 19.0607L295.701 23.6132C296.33 24.0699 296.469 24.9496 296.011 25.5783L282.573 44.0676C280.857 46.4264 277.554 46.9493 275.194 45.2355Z" fill="#FFDF41"/>
<path d="M291.973 29.9229L292.54 30.3412L293.376 29.2057L292.808 28.7874L291.973 29.9229ZM289.399 26.2785C289.086 26.0475 288.646 26.1147 288.414 26.428C288.183 26.7417 288.251 27.1831 288.564 27.4141L289.399 26.2785ZM292.808 28.7874L289.399 26.2785L288.564 27.4141L291.973 29.9229L292.808 28.7874Z" fill="#820505"/>
<path d="M289.715 33.0253L290.283 33.4436L291.118 32.3081L290.551 31.8898L289.715 33.0253ZM288.505 30.3845C288.191 30.1535 287.751 30.2206 287.52 30.534C287.288 30.8476 287.356 31.289 287.669 31.52L288.505 30.3845ZM290.551 31.8898L288.505 30.3845L287.669 31.52L289.715 33.0253L290.551 31.8898Z" fill="#820505"/>
<path d="M287.458 36.128L288.025 36.5463L288.86 35.4107L288.293 34.9925L287.458 36.128ZM284.884 32.4836C284.571 32.2526 284.13 32.3197 283.899 32.6331C283.668 32.9467 283.735 33.3882 284.049 33.6192L284.884 32.4836ZM288.293 34.9925L284.884 32.4836L284.049 33.6192L287.458 36.128L288.293 34.9925Z" fill="#820505"/>
<path opacity="0.8" d="M278.258 42.641C279.193 42.641 279.951 41.8833 279.951 40.9487C279.951 40.014 279.193 39.2563 278.258 39.2563C277.323 39.2563 276.564 40.014 276.564 40.9487C276.564 41.8833 277.323 42.641 278.258 42.641Z" fill="#820505"/>
<path d="M300.682 19.5126V7.73417H303.34V19.5126H300.682ZM296.94 9.8834V7.56494H307.082V9.8834H296.94ZM308.567 19.5126V7.56494H310.463L315.171 14.8926H314.205L318.896 7.56494H320.809V19.5126H318.151V12.0496L318.625 12.168L315.56 16.9403H313.799L310.751 12.168L311.208 12.0496V19.5126H308.567Z" fill="#820505"/>
</svg>

