<svg xmlns="http://www.w3.org/2000/svg" fill="none" viewBox="6.19 0 327.18 22">
  <path fill="#FFE669" stroke="#820505" stroke-width=".5" d="M6.439 3A2.75 2.75 0 0 1 9.189.25h321a2.75 2.75 0 0 1 2.75 2.75v18.75H6.439V3Z"/>
  <path fill="#820505" d="m12.34 19.128.026 2.83-5.66.046-.026-2.83 5.66-.046ZM6.595 8.976a2.831 2.831 0 0 1 5.66-.047l-5.66.047Zm.085 10.199-.085-10.2 5.66-.046.085 10.199-5.66.047Zm85.66-.047.025 2.83-5.66.046-.025-2.83 5.66-.046ZM86.595 8.976a2.831 2.831 0 0 1 5.66-.047l-5.66.047Zm.085 10.199-.085-10.2 5.66-.046.085 10.199-5.66.047Zm85.66-.047.026 2.83-5.661.046-.025-2.83 5.66-.046Zm-5.745-10.152a2.83 2.83 0 0 1 5.66-.047l-5.66.047Zm.085 10.199-.085-10.2 5.66-.046.085 10.199-5.66.047Zm67.622 1.535.009.942-1.887.016-.009-.943 1.887-.016Zm-1.915-3.385a.942.942 0 1 1 1.887-.015l-1.887.015Zm.028 3.4-.028-3.4 1.887-.015.028 3.4-1.887.015Zm-28.113-.015.009.942-1.887.016-.009-.943 1.887-.016Zm-1.915-3.385a.942.942 0 1 1 1.887-.015l-1.887.015Zm.028 3.4-.028-3.4 1.887-.015.028 3.4-1.887.015Zm-12.113-.015.009.942-1.887.016-.009-.943 1.887-.016Zm-1.915-3.385a.942.942 0 1 1 1.887-.015l-1.887.015Zm.028 3.4-.028-3.4 1.887-.015.028 3.4-1.887.015Zm30.887-.015.009.942-1.887.016-.009-.943 1.887-.016Zm-1.915-3.385a.942.942 0 1 1 1.887-.015l-1.887.015Zm.028 3.4-.028-3.4 1.887-.015.028 3.4-1.887.015ZM72.302 20.71l.009.942-1.887.016-.009-.943 1.887-.016Zm-1.915-3.385a.942.942 0 1 1 1.887-.015l-1.887.015Zm.028 3.4-.028-3.4 1.887-.015.028 3.4-1.887.015Zm-28.113-.015.009.942-1.887.016-.009-.943 1.887-.016Zm-1.915-3.385a.942.942 0 1 1 1.887-.015l-1.887.015Zm.028 3.4-.028-3.4 1.887-.015.028 3.4-1.887.015Zm-12.113-.015.009.942-1.887.016-.009-.943 1.887-.016Zm-1.915-3.385a.942.942 0 1 1 1.887-.015l-1.887.015Zm.028 3.4-.028-3.4 1.887-.015.028 3.4-1.887.015Zm30.887-.015.009.942-1.887.016-.009-.943 1.887-.016Zm-1.915-3.385a.942.942 0 1 1 1.887-.015l-1.887.015Zm.028 3.4-.028-3.4 1.887-.015.028 3.4-1.887.015Zm97.887-.015.009.942-1.887.016-.009-.943 1.887-.016Zm-1.915-3.385a.942.942 0 1 1 1.887-.015l-1.887.015Zm.028 3.4-.028-3.4 1.887-.015.028 3.4-1.887.015Zm-28.113-.015.009.942-1.887.016-.009-.943 1.887-.016Zm-1.915-3.385a.942.942 0 1 1 1.887-.015l-1.887.015Zm.028 3.4-.028-3.4 1.887-.015.028 3.4-1.887.015Zm-12.113-.015.009.942-1.887.016-.009-.943 1.887-.016Zm-1.915-3.385a.942.942 0 1 1 1.887-.015l-1.887.015Zm.028 3.4-.028-3.4 1.887-.015.028 3.4-1.887.015Zm30.887-.015.009.942-1.887.016-.009-.943 1.887-.016Zm-1.915-3.385a.942.942 0 1 1 1.887-.015l-1.887.015Zm.028 3.4-.028-3.4 1.887-.015.028 3.4-1.887.015Zm177.887-.015.009.942-1.887.016-.008-.943 1.886-.016Zm-1.915-3.385a.944.944 0 0 1 1.887-.015l-1.887.015Zm.029 3.4-.029-3.4 1.887-.015.028 3.4-1.886.015Zm-28.114-.015.009.942-1.887.016-.008-.943 1.886-.016Zm-1.915-3.385a.944.944 0 0 1 1.887-.015l-1.887.015Zm.029 3.4-.029-3.4 1.887-.015.028 3.4-1.886.015Zm-12.114-.015.009.942-1.887.016-.008-.943 1.886-.016Zm-1.915-3.385a.944.944 0 0 1 1.887-.015l-1.887.015Zm.029 3.4-.029-3.4 1.887-.015.028 3.4-1.886.015Zm30.886-.015.009.942-1.887.016-.008-.943 1.886-.016Zm-1.915-3.385a.944.944 0 0 1 1.887-.015l-1.887.015Zm.029 3.4-.029-3.4 1.887-.015.028 3.4-1.886.015Zm-45.076-1.597.026 2.83-5.661.046-.025-2.83 5.66-.046Zm-5.745-10.152a2.83 2.83 0 0 1 5.66-.047l-5.66.047Zm.085 10.199-.085-10.2 5.66-.046.085 10.199-5.66.047Zm86.66-.047.026 2.83-5.661.046-.025-2.83 5.66-.046Zm-5.745-10.152a2.83 2.83 0 0 1 5.66-.047l-5.66.047Zm.085 10.199-.085-10.2 5.66-.046.085 10.199-5.66.047Z"/>
  <path fill="#820505" fill-opacity=".75" d="M34.465 13V3.9h4.082c1.048 0 1.854.212 2.418.637.563.416.845.988.845 1.716 0 .494-.113.91-.338 1.248a2.145 2.145 0 0 1-.884.78 2.718 2.718 0 0 1-1.21.273l.235-.39c.52 0 .979.091 1.378.273.398.182.715.45.949.806.234.347.35.78.35 1.3 0 .78-.294 1.387-.883 1.82-.581.425-1.448.637-2.6.637h-4.342Zm1.3-1.053h2.99c.719 0 1.27-.121 1.65-.364.382-.243.573-.624.573-1.144 0-.529-.191-.914-.572-1.157-.382-.243-.932-.364-1.651-.364h-3.107V7.865h2.782c.658 0 1.17-.121 1.534-.364.364-.243.546-.607.546-1.092 0-.485-.182-.85-.546-1.092-.364-.243-.876-.364-1.534-.364h-2.665v6.994ZM48.398 13v-1.456l-.065-.273V8.788c0-.529-.155-.936-.468-1.222-.303-.295-.762-.442-1.378-.442-.407 0-.806.07-1.196.208-.39.13-.719.308-.987.533l-.52-.936c.355-.286.78-.503 1.273-.65a5.276 5.276 0 0 1 1.573-.234c.945 0 1.673.23 2.184.689.512.46.767 1.161.767 2.106V13h-1.183Zm-2.262.078c-.51 0-.962-.087-1.352-.26a2.088 2.088 0 0 1-.883-.715 1.856 1.856 0 0 1-.313-1.053c0-.373.087-.71.26-1.014.183-.303.473-.546.871-.728.408-.182.954-.273 1.639-.273h2.184v.897h-2.133c-.623 0-1.044.104-1.26.312-.217.208-.325.46-.325.754 0 .338.134.611.403.819.268.2.64.299 1.117.299.468 0 .876-.104 1.222-.312.356-.208.611-.511.767-.91l.248.858c-.165.407-.456.732-.872.975-.416.234-.94.351-1.573.351Zm7.731 0a5.67 5.67 0 0 1-1.638-.234c-.511-.156-.914-.347-1.209-.572l.52-.988c.295.2.659.368 1.092.507.433.139.875.208 1.326.208.58 0 .997-.082 1.248-.247.26-.165.39-.394.39-.689a.606.606 0 0 0-.234-.507 1.6 1.6 0 0 0-.624-.273 8.733 8.733 0 0 0-.845-.156 17.85 17.85 0 0 1-.936-.182 4.179 4.179 0 0 1-.858-.312 1.692 1.692 0 0 1-.624-.559c-.156-.243-.234-.563-.234-.962 0-.416.117-.78.351-1.092.234-.312.563-.55.988-.715.433-.173.945-.26 1.534-.26.45 0 .906.056 1.365.169.468.104.85.256 1.144.455l-.533.988a2.945 2.945 0 0 0-.975-.429 4.496 4.496 0 0 0-1.014-.117c-.546 0-.953.091-1.222.273-.269.173-.403.399-.403.676 0 .234.078.416.234.546.165.121.373.217.624.286.26.07.546.13.858.182.312.043.624.104.936.182.312.07.594.169.845.299.26.13.468.312.624.546.165.234.247.546.247.936 0 .416-.121.776-.364 1.079-.243.303-.585.542-1.027.715-.442.165-.97.247-1.586.247ZM58.404 13V6.11h1.248V13h-1.248Zm.624-8.216a.854.854 0 0 1-.611-.234.778.778 0 0 1-.234-.572c0-.234.078-.429.234-.585a.854.854 0 0 1 .61-.234.81.81 0 0 1 .599.234.718.718 0 0 1 .247.559.838.838 0 0 1-.234.598.826.826 0 0 1-.611.234Zm6.01 8.294c-.702 0-1.33-.152-1.885-.455a3.36 3.36 0 0 1-1.287-1.248c-.312-.529-.468-1.135-.468-1.82s.156-1.291.468-1.82A3.26 3.26 0 0 1 63.153 6.5c.554-.303 1.183-.455 1.885-.455.624 0 1.178.126 1.664.377a2.58 2.58 0 0 1 1.144 1.092l-.95.611a2.055 2.055 0 0 0-.831-.741 2.244 2.244 0 0 0-1.04-.247c-.451 0-.854.1-1.21.299-.355.2-.636.481-.844.845-.208.355-.312.78-.312 1.274s.104.923.312 1.287c.208.364.49.646.845.845.355.2.758.299 1.209.299.372 0 .719-.078 1.04-.234.329-.165.606-.416.832-.754l.949.598c-.27.477-.65.845-1.144 1.105-.486.251-1.04.377-1.664.377ZM104.353 13V3.9h1.066l4.082 6.877h-.572l4.03-6.877h1.066l.013 9.1h-1.248l-.013-7.137h.299l-3.588 6.032h-.598l-3.614-6.032h.325V13h-1.248Zm15.302.078c-.737 0-1.387-.152-1.95-.455a3.333 3.333 0 0 1-1.3-1.248c-.304-.529-.455-1.135-.455-1.82s.147-1.291.442-1.82c.303-.529.715-.94 1.235-1.235a3.511 3.511 0 0 1 1.781-.455c.667 0 1.256.147 1.768.442.511.295.91.71 1.196 1.248.294.529.442 1.148.442 1.859 0 .052-.005.113-.013.182 0 .07-.005.134-.013.195h-5.863v-.897h5.213l-.507.312a2.33 2.33 0 0 0-.273-1.183 2.03 2.03 0 0 0-.793-.806c-.33-.2-.715-.299-1.157-.299-.434 0-.819.1-1.157.299a2 2 0 0 0-.793.819 2.437 2.437 0 0 0-.286 1.196v.208c0 .46.104.871.312 1.235.216.355.515.633.897.832.381.2.819.299 1.313.299.407 0 .775-.07 1.105-.208.338-.139.632-.347.884-.624l.689.806a3.009 3.009 0 0 1-1.17.832c-.46.19-.975.286-1.547.286Zm7.739 0c-.668 0-1.266-.147-1.794-.442a3.248 3.248 0 0 1-1.235-1.235c-.304-.529-.455-1.144-.455-1.846 0-.702.151-1.313.455-1.833.303-.529.715-.94 1.235-1.235.528-.295 1.126-.442 1.794-.442.58 0 1.105.13 1.573.39.468.26.84.65 1.118 1.17.286.52.429 1.17.429 1.95s-.139 1.43-.416 1.95c-.269.52-.637.914-1.105 1.183-.468.26-1.001.39-1.599.39Zm.104-1.092c.433 0 .823-.1 1.17-.299.355-.2.632-.481.832-.845.208-.373.312-.802.312-1.287 0-.494-.104-.919-.312-1.274a2.117 2.117 0 0 0-.832-.845 2.306 2.306 0 0 0-1.17-.299c-.442 0-.837.1-1.183.299a2.23 2.23 0 0 0-.832.845c-.208.355-.312.78-.312 1.274 0 .485.104.914.312 1.287.208.364.485.646.832.845.346.2.741.299 1.183.299ZM129.851 13v-1.859l.078-1.599-.13-1.599V3.354h1.248V13h-1.196Zm3.557 0V6.11h1.248V13h-1.248Zm.624-8.216a.854.854 0 0 1-.611-.234.778.778 0 0 1-.234-.572c0-.234.078-.429.234-.585a.854.854 0 0 1 .611-.234.81.81 0 0 1 .598.234.717.717 0 0 1 .247.559.838.838 0 0 1-.234.598.827.827 0 0 1-.611.234Zm5.906 8.294c-.589 0-1.109-.108-1.56-.325a2.381 2.381 0 0 1-1.04-.988c-.243-.45-.364-1.014-.364-1.69V6.11h1.248v3.822c0 .676.16 1.183.481 1.521.329.338.789.507 1.378.507.433 0 .81-.087 1.131-.26.321-.182.568-.442.741-.78.173-.347.26-.763.26-1.248V6.11h1.248V13h-1.183v-1.859l.195.494c-.225.46-.563.815-1.014 1.066a3.071 3.071 0 0 1-1.521.377Zm14.518-7.033c.554 0 1.044.108 1.469.325.424.217.754.546.988.988.242.442.364 1.001.364 1.677V13h-1.248V9.178c0-.667-.156-1.17-.468-1.508-.312-.338-.75-.507-1.313-.507-.416 0-.78.087-1.092.26a1.78 1.78 0 0 0-.728.767c-.165.338-.247.758-.247 1.261V13h-1.248V9.178c0-.667-.156-1.17-.468-1.508-.304-.338-.741-.507-1.313-.507-.408 0-.767.087-1.079.26a1.78 1.78 0 0 0-.728.767c-.174.338-.26.758-.26 1.261V13h-1.248V6.11h1.196v1.833l-.195-.468c.216-.45.55-.802 1.001-1.053.45-.251.975-.377 1.573-.377.658 0 1.226.165 1.703.494.476.32.788.81.936 1.469l-.507-.208c.208-.529.572-.953 1.092-1.274.52-.32 1.126-.481 1.82-.481Zm43.002 7.059a5.384 5.384 0 0 1-1.937-.338 4.695 4.695 0 0 1-1.534-.975 4.616 4.616 0 0 1-1.014-1.482 4.661 4.661 0 0 1-.364-1.859c0-.676.122-1.296.364-1.859a4.469 4.469 0 0 1 1.014-1.469c.442-.425.958-.75 1.547-.975a5.245 5.245 0 0 1 1.95-.351c.72 0 1.378.117 1.976.351a3.91 3.91 0 0 1 1.521 1.053l-.806.806a3.482 3.482 0 0 0-1.222-.793 3.777 3.777 0 0 0-1.417-.26 4.03 4.03 0 0 0-1.456.26 3.552 3.552 0 0 0-1.157.728 3.36 3.36 0 0 0-.754 1.118c-.173.425-.26.888-.26 1.391 0 .494.087.958.26 1.391.182.425.434.797.754 1.118.33.312.715.555 1.157.728.442.173.923.26 1.443.26.486 0 .949-.074 1.391-.221a3.502 3.502 0 0 0 1.248-.767l.741.988c-.45.381-.979.672-1.586.871a6.078 6.078 0 0 1-1.859.286Zm2.197-1.326v-3.38h1.248v3.549l-1.248-.169Zm6.506 1.3c-.693 0-1.308-.152-1.846-.455a3.389 3.389 0 0 1-1.274-1.248c-.312-.537-.468-1.144-.468-1.82 0-.685.156-1.291.468-1.82.312-.529.737-.94 1.274-1.235.538-.303 1.153-.455 1.846-.455.685 0 1.296.152 1.833.455.546.295.971.706 1.274 1.235.312.52.468 1.127.468 1.82 0 .685-.156 1.291-.468 1.82a3.264 3.264 0 0 1-1.274 1.248c-.537.303-1.148.455-1.833.455Zm0-1.092c.442 0 .837-.1 1.183-.299.356-.2.633-.481.832-.845.2-.373.299-.802.299-1.287 0-.494-.099-.919-.299-1.274a2.104 2.104 0 0 0-.832-.845 2.328 2.328 0 0 0-1.183-.299c-.442 0-.836.1-1.183.299-.346.2-.624.481-.832.845-.208.355-.312.78-.312 1.274 0 .485.104.914.312 1.287.208.364.486.646.832.845.347.2.741.299 1.183.299Zm8.252 1.092c-.693 0-1.308-.152-1.846-.455a3.389 3.389 0 0 1-1.274-1.248c-.312-.537-.468-1.144-.468-1.82 0-.685.156-1.291.468-1.82.312-.529.737-.94 1.274-1.235.538-.303 1.153-.455 1.846-.455.685 0 1.296.152 1.833.455.546.295.971.706 1.274 1.235.312.52.468 1.127.468 1.82 0 .685-.156 1.291-.468 1.82a3.264 3.264 0 0 1-1.274 1.248c-.537.303-1.148.455-1.833.455Zm0-1.092c.442 0 .837-.1 1.183-.299.356-.2.633-.481.832-.845.2-.373.299-.802.299-1.287 0-.494-.099-.919-.299-1.274a2.104 2.104 0 0 0-.832-.845 2.328 2.328 0 0 0-1.183-.299c-.442 0-.836.1-1.183.299-.346.2-.624.481-.832.845-.208.355-.312.78-.312 1.274 0 .485.104.914.312 1.287.208.364.486.646.832.845.347.2.741.299 1.183.299Zm8.148 1.092c-.667 0-1.265-.147-1.794-.442a3.255 3.255 0 0 1-1.235-1.235c-.303-.529-.455-1.144-.455-1.846 0-.702.152-1.313.455-1.833.304-.529.715-.94 1.235-1.235.529-.295 1.127-.442 1.794-.442.581 0 1.105.13 1.573.39.468.26.841.65 1.118 1.17.286.52.429 1.17.429 1.95s-.138 1.43-.416 1.95a2.81 2.81 0 0 1-1.105 1.183c-.468.26-1.001.39-1.599.39Zm.104-1.092c.434 0 .824-.1 1.17-.299.356-.2.633-.481.832-.845.208-.373.312-.802.312-1.287 0-.494-.104-.919-.312-1.274a2.104 2.104 0 0 0-.832-.845 2.301 2.301 0 0 0-1.17-.299c-.442 0-.836.1-1.183.299-.346.2-.624.481-.832.845-.208.355-.312.78-.312 1.274 0 .485.104.914.312 1.287.208.364.486.646.832.845.347.2.741.299 1.183.299ZM225.018 13v-1.859l.078-1.599-.13-1.599V3.354h1.248V13h-1.196Zm54.599-5.776h4.32v1.02h-4.32v-1.02Zm.108 3.732h4.896V12h-6.096V3.6h5.928v1.044h-4.728v6.312ZM286.396 12V3.096h1.152V12h-1.152Zm3.352 0V5.64h1.152V12h-1.152Zm.576-7.584a.789.789 0 0 1-.564-.216.718.718 0 0 1-.216-.528c0-.216.072-.396.216-.54a.789.789 0 0 1 .564-.216c.224 0 .408.072.552.216a.662.662 0 0 1 .228.516c0 .216-.072.4-.216.552a.763.763 0 0 1-.564.216Zm4.959 7.656c-.64 0-1.136-.172-1.488-.516-.352-.344-.528-.836-.528-1.476V4.248h1.152v5.784c0 .344.084.608.252.792.176.184.424.276.744.276.36 0 .66-.1.9-.3l.36.828a1.67 1.67 0 0 1-.636.336c-.24.072-.492.108-.756.108Zm-3.096-5.484V5.64h4.056v.948h-4.056Zm8.502 5.484c-.68 0-1.28-.14-1.8-.42a3.08 3.08 0 0 1-1.2-1.152c-.28-.488-.42-1.048-.42-1.68 0-.632.136-1.192.408-1.68a3 3 0 0 1 1.14-1.14 3.244 3.244 0 0 1 1.644-.42c.616 0 1.16.136 1.632.408.472.272.84.656 1.104 1.152.272.488.408 1.06.408 1.716 0 .048-.004.104-.012.168 0 .064-.004.124-.012.18h-5.412v-.828h4.812l-.468.288a2.139 2.139 0 0 0-.252-1.092 1.872 1.872 0 0 0-.732-.744 2.022 2.022 0 0 0-1.068-.276c-.4 0-.756.092-1.068.276a1.852 1.852 0 0 0-.732.756c-.176.32-.264.688-.264 1.104v.192c0 .424.096.804.288 1.14.2.328.476.584.828.768.352.184.756.276 1.212.276.376 0 .716-.064 1.02-.192.312-.128.584-.32.816-.576l.636.744a2.777 2.777 0 0 1-1.08.768c-.424.176-.9.264-1.428.264Z"/>
</svg>